<svg id="visual" viewBox="0 0 900 600" width="900" height="600" xmlns="http://www.w3.org/2000/svg" xmlns:xlink="http://www.w3.org/1999/xlink" version="1.1"><rect x="0" y="0" width="900" height="600" fill="#FFFFFF"></rect><defs><linearGradient id="grad1_0" x1="33.3%" y1="0%" x2="100%" y2="100%"><stop offset="20%" stop-color="#ff0074" stop-opacity="1"></stop><stop offset="80%" stop-color="#ff0074" stop-opacity="1"></stop></linearGradient></defs><defs><linearGradient id="grad1_1" x1="33.3%" y1="0%" x2="100%" y2="100%"><stop offset="20%" stop-color="#ff0074" stop-opacity="1"></stop><stop offset="80%" stop-color="#ffa0b7" stop-opacity="1"></stop></linearGradient></defs><defs><linearGradient id="grad1_2" x1="33.3%" y1="0%" x2="100%" y2="100%"><stop offset="20%" stop-color="#ffffff" stop-opacity="1"></stop><stop offset="80%" stop-color="#ffa0b7" stop-opacity="1"></stop></linearGradient></defs><defs><linearGradient id="grad2_0" x1="0%" y1="0%" x2="66.7%" y2="100%"><stop offset="20%" stop-color="#ff0074" stop-opacity="1"></stop><stop offset="80%" stop-color="#ff0074" stop-opacity="1"></stop></linearGradient></defs><defs><linearGradient id="grad2_1" x1="0%" y1="0%" x2="66.7%" y2="100%"><stop offset="20%" stop-color="#ffa0b7" stop-opacity="1"></stop><stop offset="80%" stop-color="#ff0074" stop-opacity="1"></stop></linearGradient></defs><defs><linearGradient id="grad2_2" x1="0%" y1="0%" x2="66.7%" y2="100%"><stop offset="20%" stop-color="#ffa0b7" stop-opacity="1"></stop><stop offset="80%" stop-color="#ffffff" stop-opacity="1"></stop></linearGradient></defs><g transform="translate(900, 0)"><path d="M0 486.7C-52 478.9 -104 471.1 -144.3 444.1C-184.6 417.2 -213.2 371 -245.7 338.2C-278.2 305.3 -314.6 285.7 -355.2 258C-395.7 230.4 -440.3 194.8 -462.9 150.4C-485.5 106.1 -486.1 53 -486.7 0L0 0Z" fill="#ffd0da"></path><path d="M0 324.5C-34.7 319.3 -69.3 314.1 -96.2 296.1C-123.1 278.1 -142.1 247.4 -163.8 225.4C-185.5 203.5 -209.8 190.4 -236.8 172C-263.8 153.6 -293.5 129.8 -308.6 100.3C-323.7 70.7 -324.1 35.4 -324.5 0L0 0Z" fill="#ff6a94"></path><path d="M0 162.2C-17.3 159.6 -34.7 157 -48.1 148C-61.5 139.1 -71.1 123.7 -81.9 112.7C-92.7 101.8 -104.9 95.2 -118.4 86C-131.9 76.8 -146.8 64.9 -154.3 50.1C-161.8 35.4 -162 17.7 -162.2 0L0 0Z" fill="#ff0074"></path></g><g transform="translate(0, 600)"><path d="M0 -486.7C52.9 -485.3 105.7 -483.9 150.4 -462.9C195.1 -442 231.7 -401.5 265.1 -364.9C298.5 -328.3 328.9 -295.6 357.6 -259.8C386.3 -224 413.4 -185 434.6 -141.2C455.9 -97.4 471.3 -48.7 486.7 0L0 0Z" fill="#ffd0da"></path><path d="M0 -324.5C35.2 -323.5 70.5 -322.6 100.3 -308.6C130.1 -294.6 154.4 -267.6 176.7 -243.2C199 -218.9 219.2 -197.1 238.4 -173.2C257.5 -149.3 275.6 -123.4 289.8 -94.1C303.9 -64.9 314.2 -32.5 324.5 0L0 0Z" fill="#ff6a94"></path><path d="M0 -162.2C17.6 -161.8 35.2 -161.3 50.1 -154.3C65 -147.3 77.2 -133.8 88.4 -121.6C99.5 -109.4 109.6 -98.5 119.2 -86.6C128.8 -74.7 137.8 -61.7 144.9 -47.1C152 -32.5 157.1 -16.2 162.2 0L0 0Z" fill="#ff0074"></path></g></svg>